Coordinates
version=1
nRows=10
nColumns=40
inDegrees=yes

Units are S.I. units (second, meters, Newtons, ...)
Angles are in degrees.

endheader
time	pelvis_tilt	pelvis_list	pelvis_rotation	pelvis_tx	pelvis_ty	pelvis_tz	hip_flexion_r	hip_adduction_r	hip_rotation_r	knee_angle_r	knee_angle_r_beta	ankle_angle_r	subtalar_angle_r	mtp_angle_r	hip_flexion_l	hip_adduction_l	hip_rotation_l	knee_angle_l	knee_angle_l_beta	ankle_angle_l	subtalar_angle_l	mtp_angle_l	lumbar_extension	lumbar_bending	lumbar_rotation	arm_flex_r	arm_add_r	arm_rot_r	elbow_flex_r	pro_sup_r	wrist_flex_r	wrist_dev_r	arm_flex_l	arm_add_l	arm_rot_l	elbow_flex_l	pro_sup_l	wrist_flex_l	wrist_dev_l
      7.64250000	     -2.90644335	     -3.61817706	     -2.90595209	      1.05258519	      0.93385182	      0.44802043	     34.43911561	     -5.34932818	     -7.32982610	     54.60799745	     54.60799745	      0.70667699	    -14.54027896	      2.10205801	      8.33906379	     -3.96190978	     -9.69671306	     18.52328842	     18.52328842	     14.71994965	    -11.21798631	     -2.51966710	    -11.69819829	      5.98942116	      1.17378533	      1.89621165	    -12.57089713	     -7.63056254	     55.58803633	     46.23685617	      0.00000000	      0.00000000	     13.55559764	    -14.13913505	      5.39293003	     47.78882913	     45.98956901	      0.00000000	      0.00000000
      7.65385714	     -2.91114557	     -3.54292375	     -3.13843059	      1.05253145	      0.93379065	      0.44802720	     34.73648743	     -5.16264535	     -7.52740674	     51.09719067	     51.09719067	      0.35140576	    -13.84164485	      1.21396029	      7.18196746	     -3.78827032	    -10.15163194	     17.57554791	     17.57554791	     14.69335914	    -10.88387025	     -3.36433887	    -11.64670372	      5.91969258	      0.63677516	      2.50540950	    -11.89742963	     -8.67318207	     48.01532726	     46.49905538	      0.00000000	      0.00000000	     14.15888336	    -15.03273193	      5.03010611	     50.36182737	     46.08202701	      0.00000000	      0.00000000
      7.66521429	     -2.84672810	     -3.54295053	     -3.34735926	      1.05255316	      0.93369352	      0.44805828	     34.80406467	     -4.89825105	     -7.78745236	     47.36729876	     47.36729876	      0.35175471	    -12.64632314	      1.34607728	      5.94532472	     -3.67053251	    -10.48752111	     16.65036372	     16.65036372	     14.92519570	    -10.44742662	     -3.48084434	    -11.84818897	      6.03281319	      1.15060365	      0.72537258	    -12.22705300	     -8.75569409	     45.64856078	     46.56717175	      0.00000000	      0.00000000	     15.67528524	    -15.11787585	      4.63291186	     51.99870980	     46.15477402	      0.00000000	      0.00000000
      7.67657143	     -2.86433585	     -3.44456175	     -3.52756393	      1.05265769	      0.93321754	      0.44823609	     34.78861858	     -4.70097742	     -8.04226799	     43.33964173	     43.33964173	     -0.18111227	    -11.50020698	     -0.05228683	      4.77914595	     -3.46574615	    -10.93074646	     15.65241018	     15.65241018	     14.85927551	     -9.94557361	     -4.48375309	    -11.84080719	      5.95467537	      0.61718270	      1.34364649	    -11.65536114	    -10.30657782	     38.43721265	     46.84788408	      0.00000000	      0.00000000	     16.06629342	    -16.02631289	      3.94882085	     55.15007797	     46.29038721	      0.00000000	      0.00000000
      7.68792857	     -2.88314766	     -3.45662645	     -3.64292344	      1.05288819	      0.93262333	      0.44842741	     34.59232686	     -4.41304176	     -8.47777072	     39.15893642	     39.15893642	     -0.16857011	     -9.81916886	      0.24904143	      3.67386093	     -3.36937517	    -11.18836358	     14.81028591	     14.81028591	     15.14198202	     -9.47461335	     -4.62475192	    -11.88682343	      6.11384884	      0.92476892	     -0.46303032	    -11.93006118	    -10.46686592	     36.75065020	     46.89978958	      0.00000000	      0.00000000	     17.43007092	    -16.15281910	      3.54726166	     56.64103026	     46.35836151	      0.00000000	      0.00000000
      7.69928571	     -2.81711704	     -3.32122650	     -3.76641597	      1.05336178	      0.93183066	      0.44875287	     34.16640030	     -4.26566729	     -8.94422340	     34.86506617	     34.86506617	     -0.52343423	     -7.95277739	     -0.70271453	      2.37749394	     -3.11724757	    -11.68218955	     13.77347911	     13.77347911	     15.12385383	     -8.78073567	     -5.65369732	    -11.98918072	      5.97903500	      0.55561704	     -0.20536346	    -11.55568515	    -12.56441410	     30.82340698	     47.18936839	      0.00000000	      0.00000000	     17.73795026	    -16.93071247	      2.65894783	     60.24898480	     46.52632785	      0.00000000	      0.00000000
      7.71064286	     -2.80890515	     -3.28752665	     -3.80419880	      1.05400435	      0.93079604	      0.44908084	     33.63938143	     -3.99547060	     -9.52110557	     30.55356330	     30.55356330	     -0.49355718	     -5.91316021	     -0.09270645	      1.25060706	     -2.97354936	    -11.89635158	     12.97927716	     12.97927716	     15.44661555	     -8.24648337	     -5.83134273	    -11.98986629	      6.06243326	      0.79982801	     -2.02336343	    -11.82021267	    -12.81202000	     29.49457802	     47.23736413	      0.00000000	      0.00000000	     18.99005233	    -17.02881805	      2.27584060	     61.75656474	     46.59189501	      0.00000000	      0.00000000
      7.72200000	     -2.77126666	     -3.19733799	     -3.83958536	      1.05491332	      0.92952389	      0.44954182	     32.97515198	     -3.76942461	    -10.19838399	     26.36394933	     26.36394933	     -0.39046112	     -3.71330202	      0.67896926	      0.05810950	     -2.77631601	    -12.18618294	     12.14647389	     12.14647389	     15.76818127	     -7.60511187	     -6.10687215	    -11.97590861	      6.04716501	      1.05805513	     -3.70538525	    -11.96613972	    -13.10395831	     28.02199688	     47.29861558	      0.00000000	      0.00000000	     20.14292742	    -17.15957886	      1.94027172	     63.60608486	     46.65793432	      0.00000000	      0.00000000
      7.73335714	     -2.61176958	     -3.00203396	     -3.83212301	      1.05608747	      0.92806107	      0.45006231	     32.33008085	     -3.75574604	    -11.14559465	     22.89751166	     22.89751166	      0.50080594	     -1.00081399	      3.21194258	     -1.26029244	     -2.49211858	    -12.64196083	     11.33271083	     11.33271083	     15.94320006	     -6.66665672	     -7.01467827	    -12.13957435	      5.83187938	      0.46214040	     -3.93633596	    -11.80085975	    -15.35667333	     24.38451872	     47.58439547	      0.00000000	      0.00000000	     19.95738565	    -18.10702127	      1.08290024	     67.94472458	     46.83222375	      0.00000000	      0.00000000
      7.74471429	     -2.59110674	     -2.90550606	     -3.77694741	      1.05742376	      0.92626994	      0.45072578	     31.62685517	     -3.49119320	    -11.85408224	     19.42468724	     19.42468724	      0.63678145	      0.66171315	      4.26475939	     -2.33063554	     -2.31910327	    -12.72710055	     10.73532172	     10.73532172	     16.34726249	     -6.25421042	     -7.15900142	    -12.00783029	      5.80634717	      0.65121289	     -5.65646809	    -11.92263561	    -15.63573448	     23.45975792	     47.62736458	      0.00000000	      0.00000000	     21.06972164	    -18.13197212	      0.69486698	     69.39437995	     46.89741288	      0.00000000	      0.00000000
